<svg width="514" height="380" viewBox="0 0 514 380" fill="none" xmlns="http://www.w3.org/2000/svg">
<path d="M121.016 270.062C121.016 269.828 120.99 269.62 120.938 269.438C120.891 269.25 120.799 269.081 120.664 268.93C120.529 268.779 120.336 268.63 120.086 268.484C119.841 268.339 119.523 268.19 119.133 268.039C118.685 267.867 118.266 267.68 117.875 267.477C117.49 267.268 117.148 267.034 116.852 266.773C116.56 266.508 116.331 266.198 116.164 265.844C115.997 265.49 115.914 265.078 115.914 264.609C115.914 264.146 115.995 263.724 116.156 263.344C116.323 262.958 116.557 262.628 116.859 262.352C117.167 262.07 117.531 261.854 117.953 261.703C118.375 261.547 118.841 261.469 119.352 261.469C120.086 261.469 120.714 261.625 121.234 261.938C121.76 262.25 122.161 262.669 122.438 263.195C122.719 263.721 122.859 264.305 122.859 264.945H120.969C120.969 264.576 120.911 264.247 120.797 263.961C120.682 263.674 120.505 263.451 120.266 263.289C120.026 263.128 119.716 263.047 119.336 263.047C118.987 263.047 118.698 263.115 118.469 263.25C118.245 263.385 118.078 263.57 117.969 263.805C117.865 264.039 117.812 264.307 117.812 264.609C117.812 264.818 117.857 265.008 117.945 265.18C118.034 265.346 118.161 265.5 118.328 265.641C118.495 265.781 118.698 265.914 118.938 266.039C119.177 266.164 119.453 266.284 119.766 266.398C120.297 266.591 120.76 266.805 121.156 267.039C121.552 267.273 121.878 267.536 122.133 267.828C122.393 268.115 122.586 268.44 122.711 268.805C122.841 269.169 122.906 269.583 122.906 270.047C122.906 270.516 122.826 270.943 122.664 271.328C122.508 271.708 122.279 272.034 121.977 272.305C121.674 272.576 121.31 272.786 120.883 272.938C120.456 273.083 119.977 273.156 119.445 273.156C118.956 273.156 118.484 273.083 118.031 272.938C117.583 272.792 117.182 272.57 116.828 272.273C116.474 271.971 116.193 271.594 115.984 271.141C115.781 270.688 115.68 270.156 115.68 269.547H117.578C117.578 269.911 117.622 270.224 117.711 270.484C117.799 270.74 117.927 270.951 118.094 271.117C118.266 271.279 118.466 271.398 118.695 271.477C118.93 271.549 119.19 271.586 119.477 271.586C119.831 271.586 120.12 271.523 120.344 271.398C120.573 271.268 120.742 271.089 120.852 270.859C120.961 270.63 121.016 270.365 121.016 270.062ZM130.852 266.359V267.953H126.062V266.359H130.852ZM126.508 261.625V273H124.609V261.625H126.508ZM132.336 261.625V273H130.445V261.625H132.336ZM136.461 261.625V273H134.562V261.625H136.461ZM140.555 261.625V273H138.656V261.625H140.555ZM144.242 266.586V268.18H140.117V266.586H144.242ZM144.773 261.625V263.219H140.117V261.625H144.773ZM150.602 261.625V273H148.711V261.625H150.602ZM153.5 261.625V263.219H145.844V261.625H153.5Z" fill="black"/>
<rect x="35" y="239" width="199" height="57" rx="5" stroke="black" stroke-width="2"/>
<path d="M211.188 353.062C211.188 352.828 211.161 352.62 211.109 352.438C211.062 352.25 210.971 352.081 210.836 351.93C210.701 351.779 210.508 351.63 210.258 351.484C210.013 351.339 209.695 351.19 209.305 351.039C208.857 350.867 208.438 350.68 208.047 350.477C207.661 350.268 207.32 350.034 207.023 349.773C206.732 349.508 206.503 349.198 206.336 348.844C206.169 348.49 206.086 348.078 206.086 347.609C206.086 347.146 206.167 346.724 206.328 346.344C206.495 345.958 206.729 345.628 207.031 345.352C207.339 345.07 207.703 344.854 208.125 344.703C208.547 344.547 209.013 344.469 209.523 344.469C210.258 344.469 210.885 344.625 211.406 344.938C211.932 345.25 212.333 345.669 212.609 346.195C212.891 346.721 213.031 347.305 213.031 347.945H211.141C211.141 347.576 211.083 347.247 210.969 346.961C210.854 346.674 210.677 346.451 210.438 346.289C210.198 346.128 209.888 346.047 209.508 346.047C209.159 346.047 208.87 346.115 208.641 346.25C208.417 346.385 208.25 346.57 208.141 346.805C208.036 347.039 207.984 347.307 207.984 347.609C207.984 347.818 208.029 348.008 208.117 348.18C208.206 348.346 208.333 348.5 208.5 348.641C208.667 348.781 208.87 348.914 209.109 349.039C209.349 349.164 209.625 349.284 209.938 349.398C210.469 349.591 210.932 349.805 211.328 350.039C211.724 350.273 212.049 350.536 212.305 350.828C212.565 351.115 212.758 351.44 212.883 351.805C213.013 352.169 213.078 352.583 213.078 353.047C213.078 353.516 212.997 353.943 212.836 354.328C212.68 354.708 212.451 355.034 212.148 355.305C211.846 355.576 211.482 355.786 211.055 355.938C210.628 356.083 210.148 356.156 209.617 356.156C209.128 356.156 208.656 356.083 208.203 355.938C207.755 355.792 207.354 355.57 207 355.273C206.646 354.971 206.365 354.594 206.156 354.141C205.953 353.688 205.852 353.156 205.852 352.547H207.75C207.75 352.911 207.794 353.224 207.883 353.484C207.971 353.74 208.099 353.951 208.266 354.117C208.438 354.279 208.638 354.398 208.867 354.477C209.102 354.549 209.362 354.586 209.648 354.586C210.003 354.586 210.292 354.523 210.516 354.398C210.745 354.268 210.914 354.089 211.023 353.859C211.133 353.63 211.188 353.365 211.188 353.062ZM218.539 351.781H216.141V350.195H218.539C218.93 350.195 219.245 350.112 219.484 349.945C219.729 349.779 219.906 349.549 220.016 349.258C220.13 348.966 220.188 348.635 220.188 348.266C220.188 347.911 220.13 347.578 220.016 347.266C219.906 346.953 219.732 346.701 219.492 346.508C219.253 346.315 218.935 346.219 218.539 346.219H216.672V356H214.781V344.625H218.539C219.289 344.625 219.93 344.781 220.461 345.094C220.992 345.406 221.398 345.836 221.68 346.383C221.961 346.924 222.102 347.547 222.102 348.25C222.102 348.984 221.961 349.615 221.68 350.141C221.398 350.667 220.992 351.073 220.461 351.359C219.93 351.641 219.289 351.781 218.539 351.781ZM226.453 346.188L223.703 356H221.719L225.328 344.625H226.562L226.453 346.188ZM228.648 356L225.891 346.188L225.758 344.625H227.016L230.641 356H228.648ZM228.695 351.773V353.367H223.398V351.773H228.695ZM237.359 352.289H239.25C239.214 353.112 239.047 353.812 238.75 354.391C238.453 354.964 238.026 355.401 237.469 355.703C236.917 356.005 236.242 356.156 235.445 356.156C234.841 356.156 234.299 356.047 233.82 355.828C233.346 355.609 232.943 355.294 232.609 354.883C232.276 354.466 232.021 353.958 231.844 353.359C231.672 352.76 231.586 352.081 231.586 351.32V349.305C231.586 348.544 231.674 347.865 231.852 347.266C232.034 346.667 232.294 346.159 232.633 345.742C232.971 345.326 233.383 345.01 233.867 344.797C234.357 344.578 234.909 344.469 235.523 344.469C236.31 344.469 236.971 344.62 237.508 344.922C238.044 345.224 238.458 345.667 238.75 346.25C239.042 346.833 239.211 347.544 239.258 348.383H237.367C237.341 347.815 237.263 347.362 237.133 347.023C237.008 346.68 236.815 346.432 236.555 346.281C236.299 346.13 235.956 346.055 235.523 346.055C235.164 346.055 234.854 346.122 234.594 346.258C234.339 346.393 234.128 346.596 233.961 346.867C233.799 347.133 233.677 347.469 233.594 347.875C233.516 348.276 233.477 348.747 233.477 349.289V351.32C233.477 351.841 233.51 352.302 233.578 352.703C233.646 353.104 233.755 353.445 233.906 353.727C234.057 354.003 234.258 354.214 234.508 354.359C234.758 354.5 235.07 354.57 235.445 354.57C235.893 354.57 236.25 354.5 236.516 354.359C236.786 354.219 236.987 353.982 237.117 353.648C237.247 353.315 237.328 352.862 237.359 352.289ZM247.258 354.414V356H242.32V354.414H247.258ZM242.82 344.625V356H240.922V344.625H242.82ZM246.594 349.359V350.922H242.32V349.359H246.594ZM247.211 344.625V346.219H242.32V344.625H247.211Z" fill="black"/>
<rect x="35" y="322" width="383" height="57" rx="5" stroke="black" stroke-width="2"/>
<path d="M131.945 66.5078L133.766 57.625H134.891L134.844 59.8516L132.875 69H131.695L131.945 66.5078ZM130.789 57.625L132.234 66.4453L132.297 69H131.055L128.906 57.625H130.789ZM136.867 66.4141L138.297 57.625H140.172L138.031 69H136.789L136.867 66.4141ZM135.344 57.625L137.148 66.5312L137.383 69H136.203L134.281 59.8438L134.234 57.625H135.344Z" fill="black"/>
<rect x="106" y="35" width="57" height="57" rx="5" stroke="black" stroke-width="2"/>
<path d="M136.211 137.062C136.211 136.828 136.185 136.62 136.133 136.438C136.086 136.25 135.995 136.081 135.859 135.93C135.724 135.779 135.531 135.63 135.281 135.484C135.036 135.339 134.719 135.19 134.328 135.039C133.88 134.867 133.461 134.68 133.07 134.477C132.685 134.268 132.344 134.034 132.047 133.773C131.755 133.508 131.526 133.198 131.359 132.844C131.193 132.49 131.109 132.078 131.109 131.609C131.109 131.146 131.19 130.724 131.352 130.344C131.518 129.958 131.753 129.628 132.055 129.352C132.362 129.07 132.727 128.854 133.148 128.703C133.57 128.547 134.036 128.469 134.547 128.469C135.281 128.469 135.909 128.625 136.43 128.938C136.956 129.25 137.357 129.669 137.633 130.195C137.914 130.721 138.055 131.305 138.055 131.945H136.164C136.164 131.576 136.107 131.247 135.992 130.961C135.878 130.674 135.701 130.451 135.461 130.289C135.221 130.128 134.911 130.047 134.531 130.047C134.182 130.047 133.893 130.115 133.664 130.25C133.44 130.385 133.273 130.57 133.164 130.805C133.06 131.039 133.008 131.307 133.008 131.609C133.008 131.818 133.052 132.008 133.141 132.18C133.229 132.346 133.357 132.5 133.523 132.641C133.69 132.781 133.893 132.914 134.133 133.039C134.372 133.164 134.648 133.284 134.961 133.398C135.492 133.591 135.956 133.805 136.352 134.039C136.747 134.273 137.073 134.536 137.328 134.828C137.589 135.115 137.781 135.44 137.906 135.805C138.036 136.169 138.102 136.583 138.102 137.047C138.102 137.516 138.021 137.943 137.859 138.328C137.703 138.708 137.474 139.034 137.172 139.305C136.87 139.576 136.505 139.786 136.078 139.938C135.651 140.083 135.172 140.156 134.641 140.156C134.151 140.156 133.68 140.083 133.227 139.938C132.779 139.792 132.378 139.57 132.023 139.273C131.669 138.971 131.388 138.594 131.18 138.141C130.977 137.688 130.875 137.156 130.875 136.547H132.773C132.773 136.911 132.818 137.224 132.906 137.484C132.995 137.74 133.122 137.951 133.289 138.117C133.461 138.279 133.661 138.398 133.891 138.477C134.125 138.549 134.385 138.586 134.672 138.586C135.026 138.586 135.315 138.523 135.539 138.398C135.768 138.268 135.938 138.089 136.047 137.859C136.156 137.63 136.211 137.365 136.211 137.062Z" fill="black"/>
<rect x="106" y="106" width="57" height="57" rx="5" stroke="black" stroke-width="2"/>
<path d="M63.7812 130.188L61.0312 140H59.0469L62.6562 128.625H63.8906L63.7812 130.188ZM65.9766 140L63.2188 130.188L63.0859 128.625H64.3438L67.9688 140H65.9766ZM66.0234 135.773V137.367H60.7266V135.773H66.0234Z" fill="black"/>
<rect x="35" y="106" width="57" height="57" rx="5" stroke="black" stroke-width="2"/>
<path d="M204.805 140H202.828L202.844 138.414H204.805C205.414 138.414 205.901 138.302 206.266 138.078C206.63 137.849 206.893 137.5 207.055 137.031C207.216 136.562 207.297 135.964 207.297 135.234V133.383C207.297 132.82 207.25 132.341 207.156 131.945C207.068 131.544 206.927 131.219 206.734 130.969C206.547 130.714 206.299 130.526 205.992 130.406C205.685 130.281 205.315 130.219 204.883 130.219H202.789V128.625H204.883C205.534 128.625 206.122 128.729 206.648 128.938C207.174 129.146 207.625 129.453 208 129.859C208.38 130.26 208.672 130.758 208.875 131.352C209.078 131.945 209.18 132.628 209.18 133.398V135.234C209.18 136.005 209.078 136.688 208.875 137.281C208.672 137.87 208.38 138.367 208 138.773C207.62 139.174 207.161 139.479 206.625 139.688C206.089 139.896 205.482 140 204.805 140ZM203.914 128.625V140H202.016V128.625H203.914Z" fill="black"/>
<rect x="177" y="106" width="57" height="57" rx="5" stroke="black" stroke-width="2"/>
<path fill-rule="evenodd" clip-rule="evenodd" d="M134.293 8.29289C134.653 7.93241 135.221 7.90468 135.613 8.2097L135.707 8.29289L141.707 14.2929L141.79 14.3871L141.844 14.4639L141.898 14.5602L141.915 14.5961L141.942 14.6627L141.974 14.7707L141.984 14.8236L141.993 14.8834L141.998 14.941L142 15L141.998 15.059L141.993 15.1166L141.984 15.1764L141.974 15.2293L141.942 15.3373L141.915 15.4039L141.844 15.5361L141.78 15.6254L141.707 15.7071L141.613 15.7903L141.536 15.8443L141.44 15.8984L141.404 15.9151L141.337 15.9417L141.229 15.9736L141.176 15.9844L141.117 15.9933L141.059 15.9983L141 16H129C128.148 16 127.703 15.0145 128.217 14.3775L128.293 14.2929L134.293 8.29289ZM135 10.415L131.414 14H138.585L135 10.415Z" fill="#131313"/>
<path fill-rule="evenodd" clip-rule="evenodd" d="M135.707 189.707C135.347 190.068 134.779 190.095 134.387 189.79L134.293 189.707L128.293 183.707L128.21 183.613L128.156 183.536L128.102 183.44L128.085 183.404L128.058 183.337L128.026 183.229L128.016 183.176L128.007 183.117L128.002 183.059L128 183L128.002 182.941L128.007 182.883L128.016 182.824L128.026 182.771L128.058 182.663L128.085 182.596L128.156 182.464L128.22 182.375L128.293 182.293L128.387 182.21L128.464 182.156L128.56 182.102L128.596 182.085L128.663 182.058L128.771 182.026L128.824 182.016L128.883 182.007L128.941 182.002L129 182H141C141.852 182 142.297 182.986 141.783 183.623L141.707 183.707L135.707 189.707ZM135 187.585L138.586 184H131.415L135 187.585Z" fill="#131313"/>
<path fill-rule="evenodd" clip-rule="evenodd" d="M260.707 134.293C261.068 134.653 261.095 135.221 260.79 135.613L260.707 135.707L254.707 141.707L254.613 141.79L254.536 141.844L254.44 141.898L254.404 141.915L254.337 141.942L254.229 141.974L254.176 141.984L254.117 141.993L254.059 141.998L254 142L253.941 141.998L253.883 141.993L253.824 141.984L253.771 141.974L253.663 141.942L253.596 141.915L253.464 141.844L253.375 141.78L253.293 141.707L253.21 141.613L253.156 141.536L253.102 141.44L253.085 141.404L253.058 141.337L253.026 141.229L253.016 141.176L253.007 141.117L253.002 141.059L253 141V129C253 128.148 253.986 127.703 254.623 128.217L254.707 128.293L260.707 134.293ZM258.585 135L255 131.414V138.585L258.585 135Z" fill="#131313"/>
<path fill-rule="evenodd" clip-rule="evenodd" d="M8.29289 135.707C7.93241 135.347 7.90468 134.779 8.2097 134.387L8.29289 134.293L14.2929 128.293L14.3871 128.21L14.4639 128.156L14.5602 128.102L14.5961 128.085L14.6627 128.058L14.7707 128.026L14.8236 128.016L14.8834 128.007L14.941 128.002L15 128L15.059 128.002L15.1166 128.007L15.1764 128.016L15.2293 128.026L15.3373 128.058L15.4039 128.085L15.5361 128.156L15.6254 128.22L15.7071 128.293L15.7903 128.387L15.8443 128.464L15.8984 128.56L15.9151 128.596L15.9417 128.663L15.9736 128.771L15.9844 128.824L15.9933 128.883L15.9983 128.941L16 129V141C16 141.852 15.0145 142.297 14.3775 141.783L14.2929 141.707L8.29289 135.707ZM10.415 135L14 138.586V131.415L10.415 135Z" fill="#131313"/>
<path d="M285.398 266.516V267.742H280.469V266.516H285.398ZM280.664 261.625V273H279.227V261.625H280.664ZM286.672 261.625V273H285.234V261.625H286.672ZM288.672 269.18V268.375C288.672 267.719 288.755 267.143 288.922 266.648C289.089 266.148 289.32 265.732 289.617 265.398C289.914 265.065 290.26 264.815 290.656 264.648C291.052 264.477 291.477 264.391 291.93 264.391C292.393 264.391 292.823 264.477 293.219 264.648C293.615 264.815 293.961 265.065 294.258 265.398C294.56 265.732 294.794 266.148 294.961 266.648C295.128 267.143 295.211 267.719 295.211 268.375V269.18C295.211 269.836 295.128 270.414 294.961 270.914C294.794 271.409 294.562 271.823 294.266 272.156C293.969 272.49 293.622 272.74 293.227 272.906C292.831 273.073 292.404 273.156 291.945 273.156C291.487 273.156 291.06 273.073 290.664 272.906C290.268 272.74 289.919 272.49 289.617 272.156C289.32 271.823 289.089 271.409 288.922 270.914C288.755 270.414 288.672 269.836 288.672 269.18ZM290.055 268.375V269.18C290.055 269.643 290.102 270.049 290.195 270.398C290.289 270.747 290.422 271.039 290.594 271.273C290.766 271.508 290.966 271.685 291.195 271.805C291.424 271.919 291.674 271.977 291.945 271.977C292.258 271.977 292.531 271.919 292.766 271.805C293.005 271.685 293.203 271.508 293.359 271.273C293.516 271.039 293.633 270.747 293.711 270.398C293.789 270.049 293.828 269.643 293.828 269.18V268.375C293.828 267.911 293.781 267.508 293.688 267.164C293.594 266.815 293.461 266.523 293.289 266.289C293.117 266.049 292.914 265.872 292.68 265.758C292.451 265.638 292.201 265.578 291.93 265.578C291.664 265.578 291.417 265.638 291.188 265.758C290.958 265.872 290.758 266.049 290.586 266.289C290.419 266.523 290.289 266.815 290.195 267.164C290.102 267.508 290.055 267.911 290.055 268.375ZM298.477 261V273H297.102V261H298.477ZM305.094 271.359V261H306.469V273H305.211L305.094 271.359ZM300.367 269.18V268.391C300.367 267.693 300.435 267.094 300.57 266.594C300.706 266.089 300.898 265.674 301.148 265.352C301.398 265.023 301.698 264.781 302.047 264.625C302.396 264.469 302.781 264.391 303.203 264.391C303.641 264.391 304.016 264.479 304.328 264.656C304.646 264.833 304.911 265.091 305.125 265.43C305.339 265.763 305.505 266.169 305.625 266.648C305.75 267.122 305.833 267.659 305.875 268.258V269.312C305.828 269.906 305.742 270.44 305.617 270.914C305.497 271.388 305.331 271.792 305.117 272.125C304.904 272.458 304.638 272.714 304.32 272.891C304.003 273.068 303.625 273.156 303.188 273.156C302.771 273.156 302.391 273.076 302.047 272.914C301.703 272.747 301.404 272.5 301.148 272.172C300.898 271.839 300.706 271.424 300.57 270.93C300.435 270.43 300.367 269.846 300.367 269.18ZM301.75 268.391V269.18C301.75 269.648 301.784 270.057 301.852 270.406C301.919 270.75 302.026 271.036 302.172 271.266C302.318 271.49 302.503 271.656 302.727 271.766C302.956 271.875 303.229 271.93 303.547 271.93C303.932 271.93 304.247 271.836 304.492 271.648C304.737 271.461 304.932 271.214 305.078 270.906C305.229 270.594 305.349 270.258 305.438 269.898V267.68C305.385 267.414 305.31 267.159 305.211 266.914C305.112 266.664 304.987 266.443 304.836 266.25C304.69 266.052 304.51 265.896 304.297 265.781C304.089 265.667 303.844 265.609 303.562 265.609C303.245 265.609 302.969 265.667 302.734 265.781C302.505 265.896 302.318 266.068 302.172 266.297C302.031 266.526 301.924 266.815 301.852 267.164C301.784 267.513 301.75 267.922 301.75 268.391ZM315.359 264.547V265.656H311.414V264.547H315.359ZM312.703 262.492H314.086V270.906C314.086 271.193 314.12 271.409 314.188 271.555C314.26 271.701 314.352 271.797 314.461 271.844C314.57 271.891 314.688 271.914 314.812 271.914C314.906 271.914 315.01 271.904 315.125 271.883C315.24 271.857 315.318 271.836 315.359 271.82L315.352 273C315.258 273.036 315.133 273.07 314.977 273.102C314.82 273.138 314.622 273.156 314.383 273.156C314.086 273.156 313.81 273.086 313.555 272.945C313.299 272.805 313.094 272.57 312.938 272.242C312.781 271.909 312.703 271.461 312.703 270.898V262.492ZM316.562 269.18V268.375C316.562 267.719 316.646 267.143 316.812 266.648C316.979 266.148 317.211 265.732 317.508 265.398C317.805 265.065 318.151 264.815 318.547 264.648C318.943 264.477 319.367 264.391 319.82 264.391C320.284 264.391 320.714 264.477 321.109 264.648C321.505 264.815 321.852 265.065 322.148 265.398C322.451 265.732 322.685 266.148 322.852 266.648C323.018 267.143 323.102 267.719 323.102 268.375V269.18C323.102 269.836 323.018 270.414 322.852 270.914C322.685 271.409 322.453 271.823 322.156 272.156C321.859 272.49 321.513 272.74 321.117 272.906C320.721 273.073 320.294 273.156 319.836 273.156C319.378 273.156 318.951 273.073 318.555 272.906C318.159 272.74 317.81 272.49 317.508 272.156C317.211 271.823 316.979 271.409 316.812 270.914C316.646 270.414 316.562 269.836 316.562 269.18ZM317.945 268.375V269.18C317.945 269.643 317.992 270.049 318.086 270.398C318.18 270.747 318.312 271.039 318.484 271.273C318.656 271.508 318.857 271.685 319.086 271.805C319.315 271.919 319.565 271.977 319.836 271.977C320.148 271.977 320.422 271.919 320.656 271.805C320.896 271.685 321.094 271.508 321.25 271.273C321.406 271.039 321.523 270.747 321.602 270.398C321.68 270.049 321.719 269.643 321.719 269.18V268.375C321.719 267.911 321.672 267.508 321.578 267.164C321.484 266.815 321.352 266.523 321.18 266.289C321.008 266.049 320.805 265.872 320.57 265.758C320.341 265.638 320.091 265.578 319.82 265.578C319.555 265.578 319.307 265.638 319.078 265.758C318.849 265.872 318.648 266.049 318.477 266.289C318.31 266.523 318.18 266.815 318.086 267.164C317.992 267.508 317.945 267.911 317.945 268.375ZM329.938 265.875V273H328.555V264.547H329.891L329.938 265.875ZM332.039 264.5L332.047 265.844C331.932 265.818 331.828 265.802 331.734 265.797C331.646 265.786 331.542 265.781 331.422 265.781C331.161 265.781 330.932 265.833 330.734 265.938C330.542 266.042 330.375 266.188 330.234 266.375C330.094 266.562 329.982 266.786 329.898 267.047C329.815 267.302 329.758 267.583 329.727 267.891L329.367 268.125C329.367 267.615 329.406 267.135 329.484 266.688C329.568 266.24 329.695 265.844 329.867 265.5C330.039 265.151 330.258 264.88 330.523 264.688C330.794 264.49 331.117 264.391 331.492 264.391C331.576 264.391 331.677 264.404 331.797 264.43C331.922 264.451 332.003 264.474 332.039 264.5ZM337.703 271.047V264.547H339.086V273H337.773L337.703 271.047ZM337.961 269.266L338.508 269.25C338.508 269.812 338.458 270.333 338.359 270.812C338.266 271.286 338.109 271.698 337.891 272.047C337.677 272.396 337.393 272.669 337.039 272.867C336.685 273.06 336.25 273.156 335.734 273.156C335.385 273.156 335.068 273.096 334.781 272.977C334.5 272.857 334.255 272.672 334.047 272.422C333.844 272.172 333.685 271.846 333.57 271.445C333.461 271.044 333.406 270.562 333.406 270V264.547H334.781V270.016C334.781 270.396 334.815 270.711 334.883 270.961C334.951 271.206 335.042 271.401 335.156 271.547C335.271 271.688 335.398 271.786 335.539 271.844C335.68 271.901 335.823 271.93 335.969 271.93C336.458 271.93 336.849 271.812 337.141 271.578C337.432 271.339 337.641 271.018 337.766 270.617C337.896 270.211 337.961 269.76 337.961 269.266ZM342.547 266.352V273H341.164V264.547H342.469L342.547 266.352ZM342.211 268.453L341.648 268.43C341.643 267.852 341.708 267.318 341.844 266.828C341.984 266.333 342.182 265.904 342.438 265.539C342.698 265.174 343.008 264.893 343.367 264.695C343.727 264.492 344.125 264.391 344.562 264.391C344.906 264.391 345.219 264.448 345.5 264.562C345.781 264.672 346.021 264.849 346.219 265.094C346.417 265.339 346.568 265.656 346.672 266.047C346.781 266.432 346.836 266.904 346.836 267.461V273H345.453V267.445C345.453 267.003 345.404 266.648 345.305 266.383C345.211 266.112 345.065 265.917 344.867 265.797C344.674 265.672 344.43 265.609 344.133 265.609C343.862 265.609 343.609 265.685 343.375 265.836C343.141 265.987 342.935 266.195 342.758 266.461C342.586 266.727 342.451 267.031 342.352 267.375C342.258 267.714 342.211 268.073 342.211 268.453Z" fill="black"/>
<path d="M470.156 352.68V344.625H471.586V352.68C471.586 353.43 471.456 354.062 471.195 354.578C470.935 355.094 470.573 355.487 470.109 355.758C469.651 356.023 469.122 356.156 468.523 356.156C467.935 356.156 467.409 356.036 466.945 355.797C466.482 355.557 466.117 355.193 465.852 354.703C465.591 354.214 465.461 353.596 465.461 352.852H466.898C466.898 353.331 466.969 353.724 467.109 354.031C467.255 354.339 467.451 354.565 467.695 354.711C467.94 354.857 468.216 354.93 468.523 354.93C468.836 354.93 469.115 354.846 469.359 354.68C469.604 354.508 469.797 354.255 469.938 353.922C470.083 353.583 470.156 353.169 470.156 352.68ZM478.047 354.047V347.547H479.43V356H478.117L478.047 354.047ZM478.305 352.266L478.852 352.25C478.852 352.812 478.802 353.333 478.703 353.812C478.609 354.286 478.453 354.698 478.234 355.047C478.021 355.396 477.737 355.669 477.383 355.867C477.029 356.06 476.594 356.156 476.078 356.156C475.729 356.156 475.411 356.096 475.125 355.977C474.844 355.857 474.599 355.672 474.391 355.422C474.188 355.172 474.029 354.846 473.914 354.445C473.805 354.044 473.75 353.562 473.75 353V347.547H475.125V353.016C475.125 353.396 475.159 353.711 475.227 353.961C475.294 354.206 475.385 354.401 475.5 354.547C475.615 354.688 475.742 354.786 475.883 354.844C476.023 354.901 476.167 354.93 476.312 354.93C476.802 354.93 477.193 354.812 477.484 354.578C477.776 354.339 477.984 354.018 478.109 353.617C478.24 353.211 478.305 352.76 478.305 352.266ZM482.891 349.227V356H481.516V347.547H482.812L482.891 349.227ZM482.609 351.453L481.969 351.43C481.964 350.852 482.021 350.318 482.141 349.828C482.26 349.333 482.44 348.904 482.68 348.539C482.924 348.174 483.229 347.893 483.594 347.695C483.964 347.492 484.393 347.391 484.883 347.391C485.206 347.391 485.505 347.448 485.781 347.562C486.062 347.672 486.307 347.846 486.516 348.086C486.724 348.326 486.885 348.633 487 349.008C487.12 349.383 487.18 349.836 487.18 350.367V356H485.797V350.438C485.797 349.995 485.737 349.641 485.617 349.375C485.503 349.109 485.339 348.917 485.125 348.797C484.911 348.672 484.656 348.609 484.359 348.609C484.021 348.609 483.737 348.685 483.508 348.836C483.284 348.987 483.104 349.195 482.969 349.461C482.839 349.727 482.745 350.031 482.688 350.375C482.635 350.714 482.609 351.073 482.609 351.453ZM487.164 350.656L486.242 350.953C486.237 350.49 486.294 350.044 486.414 349.617C486.534 349.19 486.711 348.81 486.945 348.477C487.185 348.143 487.482 347.88 487.836 347.688C488.19 347.49 488.602 347.391 489.07 347.391C489.456 347.391 489.797 347.451 490.094 347.57C490.391 347.69 490.641 347.875 490.844 348.125C491.052 348.37 491.208 348.685 491.312 349.07C491.417 349.456 491.469 349.914 491.469 350.445V356H490.086V350.43C490.086 349.956 490.026 349.589 489.906 349.328C489.792 349.062 489.628 348.878 489.414 348.773C489.201 348.664 488.945 348.609 488.648 348.609C488.409 348.609 488.195 348.664 488.008 348.773C487.826 348.883 487.672 349.034 487.547 349.227C487.422 349.414 487.326 349.63 487.258 349.875C487.195 350.12 487.164 350.38 487.164 350.656ZM494.938 349.172V359.25H493.555V347.547H494.812L494.938 349.172ZM499.664 351.391V352.18C499.664 352.846 499.602 353.43 499.477 353.93C499.357 354.424 499.177 354.839 498.938 355.172C498.703 355.5 498.414 355.747 498.07 355.914C497.727 356.076 497.333 356.156 496.891 356.156C496.448 356.156 496.062 356.073 495.734 355.906C495.411 355.734 495.138 355.487 494.914 355.164C494.695 354.841 494.521 354.453 494.391 354C494.266 353.542 494.18 353.029 494.133 352.461V351.258C494.18 350.659 494.266 350.122 494.391 349.648C494.516 349.169 494.688 348.763 494.906 348.43C495.13 348.091 495.404 347.833 495.727 347.656C496.055 347.479 496.438 347.391 496.875 347.391C497.328 347.391 497.727 347.469 498.07 347.625C498.419 347.781 498.711 348.023 498.945 348.352C499.185 348.674 499.365 349.089 499.484 349.594C499.604 350.094 499.664 350.693 499.664 351.391ZM498.281 352.18V351.391C498.281 350.922 498.245 350.513 498.172 350.164C498.104 349.815 497.995 349.526 497.844 349.297C497.693 349.068 497.503 348.896 497.273 348.781C497.044 348.667 496.768 348.609 496.445 348.609C496.169 348.609 495.924 348.667 495.711 348.781C495.503 348.896 495.323 349.052 495.172 349.25C495.021 349.443 494.896 349.664 494.797 349.914C494.698 350.159 494.625 350.414 494.578 350.68V353.047C494.667 353.38 494.784 353.695 494.93 353.992C495.076 354.284 495.271 354.521 495.516 354.703C495.766 354.885 496.081 354.977 496.461 354.977C496.779 354.977 497.052 354.919 497.281 354.805C497.51 354.69 497.698 354.518 497.844 354.289C497.995 354.055 498.104 353.763 498.172 353.414C498.245 353.06 498.281 352.648 498.281 352.18Z" fill="black"/>
<rect x="403" y="132" width="97" height="140" rx="39" stroke="black" stroke-width="2"/>
<rect x="448" y="151" width="7" height="24" rx="3.5" fill="black"/>
<rect x="513" y="162" width="1" height="54" transform="rotate(90 513 162)" fill="#9CA3AF"/>
<rect x="430" y="106" width="1" height="43" fill="#9CA3AF"/>
<path d="M340.102 25.5156V26.7422H335.172V25.5156H340.102ZM335.367 20.625V32H333.93V20.625H335.367ZM341.375 20.625V32H339.938V20.625H341.375ZM343.375 28.1797V27.375C343.375 26.7188 343.458 26.1432 343.625 25.6484C343.792 25.1484 344.023 24.7318 344.32 24.3984C344.617 24.0651 344.964 23.8151 345.359 23.6484C345.755 23.4766 346.18 23.3906 346.633 23.3906C347.096 23.3906 347.526 23.4766 347.922 23.6484C348.318 23.8151 348.664 24.0651 348.961 24.3984C349.263 24.7318 349.497 25.1484 349.664 25.6484C349.831 26.1432 349.914 26.7188 349.914 27.375V28.1797C349.914 28.8359 349.831 29.4141 349.664 29.9141C349.497 30.4089 349.266 30.8229 348.969 31.1562C348.672 31.4896 348.326 31.7396 347.93 31.9062C347.534 32.0729 347.107 32.1562 346.648 32.1562C346.19 32.1562 345.763 32.0729 345.367 31.9062C344.971 31.7396 344.622 31.4896 344.32 31.1562C344.023 30.8229 343.792 30.4089 343.625 29.9141C343.458 29.4141 343.375 28.8359 343.375 28.1797ZM344.758 27.375V28.1797C344.758 28.6432 344.805 29.0495 344.898 29.3984C344.992 29.7474 345.125 30.0391 345.297 30.2734C345.469 30.5078 345.669 30.6849 345.898 30.8047C346.128 30.9193 346.378 30.9766 346.648 30.9766C346.961 30.9766 347.234 30.9193 347.469 30.8047C347.708 30.6849 347.906 30.5078 348.062 30.2734C348.219 30.0391 348.336 29.7474 348.414 29.3984C348.492 29.0495 348.531 28.6432 348.531 28.1797V27.375C348.531 26.9115 348.484 26.5078 348.391 26.1641C348.297 25.8151 348.164 25.5234 347.992 25.2891C347.82 25.0495 347.617 24.8724 347.383 24.7578C347.154 24.638 346.904 24.5781 346.633 24.5781C346.367 24.5781 346.12 24.638 345.891 24.7578C345.661 24.8724 345.461 25.0495 345.289 25.2891C345.122 25.5234 344.992 25.8151 344.898 26.1641C344.805 26.5078 344.758 26.9115 344.758 27.375ZM353.18 20V32H351.805V20H353.18ZM359.797 30.3594V20H361.172V32H359.914L359.797 30.3594ZM355.07 28.1797V27.3906C355.07 26.6927 355.138 26.0938 355.273 25.5938C355.409 25.0885 355.602 24.6745 355.852 24.3516C356.102 24.0234 356.401 23.7812 356.75 23.625C357.099 23.4688 357.484 23.3906 357.906 23.3906C358.344 23.3906 358.719 23.4792 359.031 23.6562C359.349 23.8333 359.615 24.0911 359.828 24.4297C360.042 24.763 360.208 25.1693 360.328 25.6484C360.453 26.1224 360.536 26.6589 360.578 27.2578V28.3125C360.531 28.9062 360.445 29.4401 360.32 29.9141C360.201 30.388 360.034 30.7917 359.82 31.125C359.607 31.4583 359.341 31.7135 359.023 31.8906C358.706 32.0677 358.328 32.1562 357.891 32.1562C357.474 32.1562 357.094 32.0755 356.75 31.9141C356.406 31.7474 356.107 31.5 355.852 31.1719C355.602 30.8385 355.409 30.4245 355.273 29.9297C355.138 29.4297 355.07 28.8464 355.07 28.1797ZM356.453 27.3906V28.1797C356.453 28.6484 356.487 29.0573 356.555 29.4062C356.622 29.75 356.729 30.0365 356.875 30.2656C357.021 30.4896 357.206 30.6562 357.43 30.7656C357.659 30.875 357.932 30.9297 358.25 30.9297C358.635 30.9297 358.951 30.8359 359.195 30.6484C359.44 30.4609 359.635 30.2135 359.781 29.9062C359.932 29.5938 360.052 29.2578 360.141 28.8984V26.6797C360.089 26.4141 360.013 26.1589 359.914 25.9141C359.815 25.6641 359.69 25.4427 359.539 25.25C359.393 25.0521 359.214 24.8958 359 24.7812C358.792 24.6667 358.547 24.6094 358.266 24.6094C357.948 24.6094 357.672 24.6667 357.438 24.7812C357.208 24.8958 357.021 25.0677 356.875 25.2969C356.734 25.526 356.628 25.8151 356.555 26.1641C356.487 26.513 356.453 26.9219 356.453 27.3906ZM368.461 20V32H367.086V20H368.461ZM373.672 32.1562C373.167 32.1562 372.711 32.0807 372.305 31.9297C371.898 31.7786 371.552 31.5495 371.266 31.2422C370.979 30.9297 370.76 30.5365 370.609 30.0625C370.458 29.5885 370.383 29.0286 370.383 28.3828V27.4297C370.383 26.6849 370.469 26.0547 370.641 25.5391C370.818 25.0234 371.055 24.6094 371.352 24.2969C371.648 23.9792 371.984 23.75 372.359 23.6094C372.734 23.4635 373.12 23.3906 373.516 23.3906C374.047 23.3906 374.5 23.4766 374.875 23.6484C375.25 23.8203 375.555 24.0755 375.789 24.4141C376.023 24.7526 376.195 25.1693 376.305 25.6641C376.419 26.1589 376.477 26.7292 376.477 27.375V28.1797H371.195V27H375.094V26.8047C375.073 26.3672 375.013 25.9818 374.914 25.6484C374.82 25.3151 374.664 25.0547 374.445 24.8672C374.227 24.6745 373.917 24.5781 373.516 24.5781C373.26 24.5781 373.023 24.6224 372.805 24.7109C372.591 24.7943 372.406 24.9427 372.25 25.1562C372.099 25.3646 371.979 25.6536 371.891 26.0234C371.807 26.3932 371.766 26.862 371.766 27.4297V28.3828C371.766 28.8359 371.807 29.2266 371.891 29.5547C371.979 29.8776 372.107 30.1458 372.273 30.3594C372.445 30.5677 372.654 30.724 372.898 30.8281C373.148 30.9271 373.432 30.9766 373.75 30.9766C374.214 30.9766 374.596 30.888 374.898 30.7109C375.201 30.5286 375.464 30.2969 375.688 30.0156L376.414 30.8828C376.263 31.0964 376.065 31.3021 375.82 31.5C375.581 31.6927 375.284 31.8516 374.93 31.9766C374.581 32.0964 374.161 32.1562 373.672 32.1562ZM380.141 32H378.758V22.6562C378.758 22.0469 378.854 21.5339 379.047 21.1172C379.245 20.6953 379.523 20.3776 379.883 20.1641C380.247 19.9453 380.68 19.8359 381.18 19.8359C381.32 19.8359 381.461 19.8464 381.602 19.8672C381.747 19.888 381.885 19.9193 382.016 19.9609L381.953 21.1406C381.87 21.1146 381.768 21.0964 381.648 21.0859C381.534 21.0755 381.424 21.0703 381.32 21.0703C381.07 21.0703 380.857 21.1328 380.68 21.2578C380.503 21.3776 380.367 21.5547 380.273 21.7891C380.185 22.0234 380.141 22.3125 380.141 22.6562V32ZM381.578 23.5469V24.6562H377.656V23.5469H381.578ZM386.297 23.5469V24.6562H382.352V23.5469H386.297ZM383.641 21.4922H385.023V29.9062C385.023 30.1927 385.057 30.4089 385.125 30.5547C385.198 30.7005 385.289 30.7969 385.398 30.8438C385.508 30.8906 385.625 30.9141 385.75 30.9141C385.844 30.9141 385.948 30.9036 386.062 30.8828C386.177 30.8568 386.255 30.8359 386.297 30.8203L386.289 32C386.195 32.0365 386.07 32.0703 385.914 32.1016C385.758 32.138 385.56 32.1562 385.32 32.1562C385.023 32.1562 384.747 32.0859 384.492 31.9453C384.237 31.8047 384.031 31.5703 383.875 31.2422C383.719 30.9089 383.641 30.4609 383.641 29.8984V21.4922ZM390.508 26.5703V27.7578H387.281V26.5703H390.508ZM394.844 30.9766C395.12 30.9766 395.37 30.9219 395.594 30.8125C395.823 30.6979 396.01 30.5208 396.156 30.2812C396.302 30.0365 396.385 29.7188 396.406 29.3281H397.703C397.682 29.8906 397.539 30.3854 397.273 30.8125C397.013 31.2344 396.669 31.5651 396.242 31.8047C395.82 32.0391 395.354 32.1562 394.844 32.1562C394.297 32.1562 393.82 32.0677 393.414 31.8906C393.013 31.7135 392.68 31.4583 392.414 31.125C392.154 30.7865 391.958 30.3776 391.828 29.8984C391.698 29.4141 391.633 28.8646 391.633 28.25V27.2969C391.633 26.6823 391.698 26.1354 391.828 25.6562C391.958 25.1719 392.154 24.763 392.414 24.4297C392.68 24.0911 393.013 23.8333 393.414 23.6562C393.82 23.4792 394.297 23.3906 394.844 23.3906C395.417 23.3906 395.911 23.513 396.328 23.7578C396.75 23.9974 397.078 24.3464 397.312 24.8047C397.552 25.2578 397.682 25.8073 397.703 26.4531H396.406C396.385 26.0365 396.31 25.6901 396.18 25.4141C396.049 25.1328 395.872 24.9245 395.648 24.7891C395.424 24.6484 395.156 24.5781 394.844 24.5781C394.479 24.5781 394.177 24.6432 393.938 24.7734C393.703 24.8984 393.518 25.0807 393.383 25.3203C393.247 25.5599 393.151 25.8464 393.094 26.1797C393.042 26.513 393.016 26.8854 393.016 27.2969V28.25C393.016 28.6615 393.042 29.0365 393.094 29.375C393.151 29.7083 393.245 29.9948 393.375 30.2344C393.51 30.474 393.698 30.6589 393.938 30.7891C394.177 30.9141 394.479 30.9766 394.844 30.9766ZM400.789 20V32H399.414V20H400.789ZM404.461 23.5469V32H403.086V23.5469H404.461ZM403.008 21.3047C403.008 21.0703 403.073 20.8724 403.203 20.7109C403.333 20.5495 403.529 20.4688 403.789 20.4688C404.049 20.4688 404.245 20.5495 404.375 20.7109C404.51 20.8724 404.578 21.0703 404.578 21.3047C404.578 21.5286 404.51 21.7214 404.375 21.8828C404.245 22.0391 404.049 22.1172 403.789 22.1172C403.529 22.1172 403.333 22.0391 403.203 21.8828C403.073 21.7214 403.008 21.5286 403.008 21.3047ZM409.578 30.9766C409.854 30.9766 410.104 30.9219 410.328 30.8125C410.557 30.6979 410.745 30.5208 410.891 30.2812C411.036 30.0365 411.12 29.7188 411.141 29.3281H412.438C412.417 29.8906 412.273 30.3854 412.008 30.8125C411.747 31.2344 411.404 31.5651 410.977 31.8047C410.555 32.0391 410.089 32.1562 409.578 32.1562C409.031 32.1562 408.555 32.0677 408.148 31.8906C407.747 31.7135 407.414 31.4583 407.148 31.125C406.888 30.7865 406.693 30.3776 406.562 29.8984C406.432 29.4141 406.367 28.8646 406.367 28.25V27.2969C406.367 26.6823 406.432 26.1354 406.562 25.6562C406.693 25.1719 406.888 24.763 407.148 24.4297C407.414 24.0911 407.747 23.8333 408.148 23.6562C408.555 23.4792 409.031 23.3906 409.578 23.3906C410.151 23.3906 410.646 23.513 411.062 23.7578C411.484 23.9974 411.812 24.3464 412.047 24.8047C412.286 25.2578 412.417 25.8073 412.438 26.4531H411.141C411.12 26.0365 411.044 25.6901 410.914 25.4141C410.784 25.1328 410.607 24.9245 410.383 24.7891C410.159 24.6484 409.891 24.5781 409.578 24.5781C409.214 24.5781 408.911 24.6432 408.672 24.7734C408.438 24.8984 408.253 25.0807 408.117 25.3203C407.982 25.5599 407.885 25.8464 407.828 26.1797C407.776 26.513 407.75 26.8854 407.75 27.2969V28.25C407.75 28.6615 407.776 29.0365 407.828 29.375C407.885 29.7083 407.979 29.9948 408.109 30.2344C408.245 30.474 408.432 30.6589 408.672 30.7891C408.911 30.9141 409.214 30.9766 409.578 30.9766ZM415.43 20V32H414.047V20H415.43ZM419.719 23.5469L416.711 27.4922L414.852 29.6328L414.758 28.0938L416.039 26.3281L418.055 23.5469H419.719ZM418.453 32L416.078 27.9688L416.789 26.6797L420.062 32H418.453ZM428.016 23.5469V24.6562H424.07V23.5469H428.016ZM425.359 21.4922H426.742V29.9062C426.742 30.1927 426.776 30.4089 426.844 30.5547C426.917 30.7005 427.008 30.7969 427.117 30.8438C427.227 30.8906 427.344 30.9141 427.469 30.9141C427.562 30.9141 427.667 30.9036 427.781 30.8828C427.896 30.8568 427.974 30.8359 428.016 30.8203L428.008 32C427.914 32.0365 427.789 32.0703 427.633 32.1016C427.477 32.138 427.279 32.1562 427.039 32.1562C426.742 32.1562 426.466 32.0859 426.211 31.9453C425.956 31.8047 425.75 31.5703 425.594 31.2422C425.438 30.9089 425.359 30.4609 425.359 29.8984V21.4922ZM429.219 28.1797V27.375C429.219 26.7188 429.302 26.1432 429.469 25.6484C429.635 25.1484 429.867 24.7318 430.164 24.3984C430.461 24.0651 430.807 23.8151 431.203 23.6484C431.599 23.4766 432.023 23.3906 432.477 23.3906C432.94 23.3906 433.37 23.4766 433.766 23.6484C434.161 23.8151 434.508 24.0651 434.805 24.3984C435.107 24.7318 435.341 25.1484 435.508 25.6484C435.674 26.1432 435.758 26.7188 435.758 27.375V28.1797C435.758 28.8359 435.674 29.4141 435.508 29.9141C435.341 30.4089 435.109 30.8229 434.812 31.1562C434.516 31.4896 434.169 31.7396 433.773 31.9062C433.378 32.0729 432.951 32.1562 432.492 32.1562C432.034 32.1562 431.607 32.0729 431.211 31.9062C430.815 31.7396 430.466 31.4896 430.164 31.1562C429.867 30.8229 429.635 30.4089 429.469 29.9141C429.302 29.4141 429.219 28.8359 429.219 28.1797ZM430.602 27.375V28.1797C430.602 28.6432 430.648 29.0495 430.742 29.3984C430.836 29.7474 430.969 30.0391 431.141 30.2734C431.312 30.5078 431.513 30.6849 431.742 30.8047C431.971 30.9193 432.221 30.9766 432.492 30.9766C432.805 30.9766 433.078 30.9193 433.312 30.8047C433.552 30.6849 433.75 30.5078 433.906 30.2734C434.062 30.0391 434.18 29.7474 434.258 29.3984C434.336 29.0495 434.375 28.6432 434.375 28.1797V27.375C434.375 26.9115 434.328 26.5078 434.234 26.1641C434.141 25.8151 434.008 25.5234 433.836 25.2891C433.664 25.0495 433.461 24.8724 433.227 24.7578C432.997 24.638 432.747 24.5781 432.477 24.5781C432.211 24.5781 431.964 24.638 431.734 24.7578C431.505 24.8724 431.305 25.0495 431.133 25.2891C430.966 25.5234 430.836 25.8151 430.742 26.1641C430.648 26.5078 430.602 26.9115 430.602 27.375ZM442.594 25.1719V35.25H441.211V23.5469H442.469L442.594 25.1719ZM447.32 27.3906V28.1797C447.32 28.8464 447.258 29.4297 447.133 29.9297C447.013 30.4245 446.833 30.8385 446.594 31.1719C446.359 31.5 446.07 31.7474 445.727 31.9141C445.383 32.0755 444.99 32.1562 444.547 32.1562C444.104 32.1562 443.719 32.0729 443.391 31.9062C443.068 31.7344 442.794 31.487 442.57 31.1641C442.352 30.8411 442.177 30.4531 442.047 30C441.922 29.5417 441.836 29.0286 441.789 28.4609V27.2578C441.836 26.6589 441.922 26.1224 442.047 25.6484C442.172 25.1693 442.344 24.763 442.562 24.4297C442.786 24.0911 443.06 23.8333 443.383 23.6562C443.711 23.4792 444.094 23.3906 444.531 23.3906C444.984 23.3906 445.383 23.4688 445.727 23.625C446.076 23.7812 446.367 24.0234 446.602 24.3516C446.841 24.6745 447.021 25.0885 447.141 25.5938C447.26 26.0938 447.32 26.6927 447.32 27.3906ZM445.938 28.1797V27.3906C445.938 26.9219 445.901 26.513 445.828 26.1641C445.76 25.8151 445.651 25.526 445.5 25.2969C445.349 25.0677 445.159 24.8958 444.93 24.7812C444.701 24.6667 444.424 24.6094 444.102 24.6094C443.826 24.6094 443.581 24.6667 443.367 24.7812C443.159 24.8958 442.979 25.0521 442.828 25.25C442.677 25.4427 442.552 25.6641 442.453 25.9141C442.354 26.1589 442.281 26.4141 442.234 26.6797V29.0469C442.323 29.3802 442.44 29.6953 442.586 29.9922C442.732 30.2839 442.927 30.5208 443.172 30.7031C443.422 30.8854 443.737 30.9766 444.117 30.9766C444.435 30.9766 444.708 30.9193 444.938 30.8047C445.167 30.6901 445.354 30.5182 445.5 30.2891C445.651 30.0547 445.76 29.763 445.828 29.4141C445.901 29.0599 445.938 28.6484 445.938 28.1797ZM453.242 30.5547V25.9688C453.242 25.6354 453.19 25.3672 453.086 25.1641C452.987 24.9609 452.836 24.8125 452.633 24.7188C452.435 24.625 452.185 24.5781 451.883 24.5781C451.591 24.5781 451.339 24.638 451.125 24.7578C450.917 24.8776 450.755 25.0365 450.641 25.2344C450.531 25.4323 450.477 25.651 450.477 25.8906H449.094C449.094 25.5885 449.159 25.2891 449.289 24.9922C449.424 24.6953 449.617 24.4271 449.867 24.1875C450.117 23.9427 450.417 23.75 450.766 23.6094C451.12 23.4635 451.516 23.3906 451.953 23.3906C452.474 23.3906 452.935 23.4766 453.336 23.6484C453.737 23.8151 454.052 24.0885 454.281 24.4688C454.51 24.849 454.625 25.3542 454.625 25.9844V30.1562C454.625 30.4375 454.646 30.737 454.688 31.0547C454.734 31.3724 454.799 31.6458 454.883 31.875V32H453.453C453.385 31.8333 453.333 31.612 453.297 31.3359C453.26 31.0547 453.242 30.7943 453.242 30.5547ZM453.461 26.875L453.477 27.8906H452.516C452.188 27.8906 451.888 27.9271 451.617 28C451.352 28.0729 451.122 28.1797 450.93 28.3203C450.737 28.4557 450.589 28.625 450.484 28.8281C450.385 29.0312 450.336 29.263 450.336 29.5234C450.336 29.862 450.383 30.1328 450.477 30.3359C450.57 30.5339 450.711 30.6771 450.898 30.7656C451.086 30.8542 451.323 30.8984 451.609 30.8984C451.958 30.8984 452.266 30.8177 452.531 30.6562C452.797 30.4948 453.003 30.2995 453.148 30.0703C453.299 29.8411 453.37 29.6276 453.359 29.4297L453.664 30.0781C453.643 30.2812 453.576 30.5026 453.461 30.7422C453.352 30.9766 453.198 31.2031 453 31.4219C452.802 31.6354 452.568 31.8125 452.297 31.9531C452.031 32.0885 451.732 32.1562 451.398 32.1562C450.909 32.1562 450.479 32.0625 450.109 31.875C449.745 31.6875 449.461 31.4115 449.258 31.0469C449.055 30.6823 448.953 30.2318 448.953 29.6953C448.953 29.2891 449.023 28.9141 449.164 28.5703C449.305 28.2266 449.513 27.9297 449.789 27.6797C450.065 27.4245 450.411 27.2266 450.828 27.0859C451.25 26.9453 451.737 26.875 452.289 26.875H453.461ZM458.156 25.3516V32H456.773V23.5469H458.078L458.156 25.3516ZM457.82 27.4531L457.258 27.4297C457.253 26.8516 457.318 26.3177 457.453 25.8281C457.594 25.3333 457.792 24.9036 458.047 24.5391C458.307 24.1745 458.617 23.8932 458.977 23.6953C459.336 23.4922 459.734 23.3906 460.172 23.3906C460.516 23.3906 460.828 23.4479 461.109 23.5625C461.391 23.6719 461.63 23.849 461.828 24.0938C462.026 24.3385 462.177 24.6562 462.281 25.0469C462.391 25.4323 462.445 25.9036 462.445 26.4609V32H461.062V26.4453C461.062 26.0026 461.013 25.6484 460.914 25.3828C460.82 25.112 460.674 24.9167 460.477 24.7969C460.284 24.6719 460.039 24.6094 459.742 24.6094C459.471 24.6094 459.219 24.6849 458.984 24.8359C458.75 24.987 458.544 25.1953 458.367 25.4609C458.195 25.7266 458.06 26.0312 457.961 26.375C457.867 26.7135 457.82 27.0729 457.82 27.4531ZM471.125 30.9766C471.401 30.9766 471.651 30.9219 471.875 30.8125C472.104 30.6979 472.292 30.5208 472.438 30.2812C472.583 30.0365 472.667 29.7188 472.688 29.3281H473.984C473.964 29.8906 473.82 30.3854 473.555 30.8125C473.294 31.2344 472.951 31.5651 472.523 31.8047C472.102 32.0391 471.635 32.1562 471.125 32.1562C470.578 32.1562 470.102 32.0677 469.695 31.8906C469.294 31.7135 468.961 31.4583 468.695 31.125C468.435 30.7865 468.24 30.3776 468.109 29.8984C467.979 29.4141 467.914 28.8646 467.914 28.25V27.2969C467.914 26.6823 467.979 26.1354 468.109 25.6562C468.24 25.1719 468.435 24.763 468.695 24.4297C468.961 24.0911 469.294 23.8333 469.695 23.6562C470.102 23.4792 470.578 23.3906 471.125 23.3906C471.698 23.3906 472.193 23.513 472.609 23.7578C473.031 23.9974 473.359 24.3464 473.594 24.8047C473.833 25.2578 473.964 25.8073 473.984 26.4531H472.688C472.667 26.0365 472.591 25.6901 472.461 25.4141C472.331 25.1328 472.154 24.9245 471.93 24.7891C471.706 24.6484 471.438 24.5781 471.125 24.5781C470.76 24.5781 470.458 24.6432 470.219 24.7734C469.984 24.8984 469.799 25.0807 469.664 25.3203C469.529 25.5599 469.432 25.8464 469.375 26.1797C469.323 26.513 469.297 26.8854 469.297 27.2969V28.25C469.297 28.6615 469.323 29.0365 469.375 29.375C469.432 29.7083 469.526 29.9948 469.656 30.2344C469.792 30.474 469.979 30.6589 470.219 30.7891C470.458 30.9141 470.76 30.9766 471.125 30.9766ZM479.727 30.5547V25.9688C479.727 25.6354 479.674 25.3672 479.57 25.1641C479.471 24.9609 479.32 24.8125 479.117 24.7188C478.919 24.625 478.669 24.5781 478.367 24.5781C478.076 24.5781 477.823 24.638 477.609 24.7578C477.401 24.8776 477.24 25.0365 477.125 25.2344C477.016 25.4323 476.961 25.651 476.961 25.8906H475.578C475.578 25.5885 475.643 25.2891 475.773 24.9922C475.909 24.6953 476.102 24.4271 476.352 24.1875C476.602 23.9427 476.901 23.75 477.25 23.6094C477.604 23.4635 478 23.3906 478.438 23.3906C478.958 23.3906 479.419 23.4766 479.82 23.6484C480.221 23.8151 480.536 24.0885 480.766 24.4688C480.995 24.849 481.109 25.3542 481.109 25.9844V30.1562C481.109 30.4375 481.13 30.737 481.172 31.0547C481.219 31.3724 481.284 31.6458 481.367 31.875V32H479.938C479.87 31.8333 479.818 31.612 479.781 31.3359C479.745 31.0547 479.727 30.7943 479.727 30.5547ZM479.945 26.875L479.961 27.8906H479C478.672 27.8906 478.372 27.9271 478.102 28C477.836 28.0729 477.607 28.1797 477.414 28.3203C477.221 28.4557 477.073 28.625 476.969 28.8281C476.87 29.0312 476.82 29.263 476.82 29.5234C476.82 29.862 476.867 30.1328 476.961 30.3359C477.055 30.5339 477.195 30.6771 477.383 30.7656C477.57 30.8542 477.807 30.8984 478.094 30.8984C478.443 30.8984 478.75 30.8177 479.016 30.6562C479.281 30.4948 479.487 30.2995 479.633 30.0703C479.784 29.8411 479.854 29.6276 479.844 29.4297L480.148 30.0781C480.128 30.2812 480.06 30.5026 479.945 30.7422C479.836 30.9766 479.682 31.2031 479.484 31.4219C479.286 31.6354 479.052 31.8125 478.781 31.9531C478.516 32.0885 478.216 32.1562 477.883 32.1562C477.393 32.1562 476.964 32.0625 476.594 31.875C476.229 31.6875 475.945 31.4115 475.742 31.0469C475.539 30.6823 475.438 30.2318 475.438 29.6953C475.438 29.2891 475.508 28.9141 475.648 28.5703C475.789 28.2266 475.997 27.9297 476.273 27.6797C476.549 27.4245 476.896 27.2266 477.312 27.0859C477.734 26.9453 478.221 26.875 478.773 26.875H479.945ZM484.641 25.2266V32H483.266V23.5469H484.562L484.641 25.2266ZM484.359 27.4531L483.719 27.4297C483.714 26.8516 483.771 26.3177 483.891 25.8281C484.01 25.3333 484.19 24.9036 484.43 24.5391C484.674 24.1745 484.979 23.8932 485.344 23.6953C485.714 23.4922 486.143 23.3906 486.633 23.3906C486.956 23.3906 487.255 23.4479 487.531 23.5625C487.812 23.6719 488.057 23.8464 488.266 24.0859C488.474 24.3255 488.635 24.6328 488.75 25.0078C488.87 25.3828 488.93 25.8359 488.93 26.3672V32H487.547V26.4375C487.547 25.9948 487.487 25.6406 487.367 25.375C487.253 25.1094 487.089 24.9167 486.875 24.7969C486.661 24.6719 486.406 24.6094 486.109 24.6094C485.771 24.6094 485.487 24.6849 485.258 24.8359C485.034 24.987 484.854 25.1953 484.719 25.4609C484.589 25.7266 484.495 26.0312 484.438 26.375C484.385 26.7135 484.359 27.0729 484.359 27.4531ZM488.914 26.6562L487.992 26.9531C487.987 26.4896 488.044 26.0443 488.164 25.6172C488.284 25.1901 488.461 24.8099 488.695 24.4766C488.935 24.1432 489.232 23.8802 489.586 23.6875C489.94 23.4896 490.352 23.3906 490.82 23.3906C491.206 23.3906 491.547 23.4505 491.844 23.5703C492.141 23.6901 492.391 23.875 492.594 24.125C492.802 24.3698 492.958 24.6849 493.062 25.0703C493.167 25.4557 493.219 25.9141 493.219 26.4453V32H491.836V26.4297C491.836 25.9557 491.776 25.5885 491.656 25.3281C491.542 25.0625 491.378 24.8776 491.164 24.7734C490.951 24.6641 490.695 24.6094 490.398 24.6094C490.159 24.6094 489.945 24.6641 489.758 24.7734C489.576 24.8828 489.422 25.0339 489.297 25.2266C489.172 25.4141 489.076 25.6302 489.008 25.875C488.945 26.1198 488.914 26.3802 488.914 26.6562ZM498.328 32.1562C497.823 32.1562 497.367 32.0807 496.961 31.9297C496.555 31.7786 496.208 31.5495 495.922 31.2422C495.635 30.9297 495.417 30.5365 495.266 30.0625C495.115 29.5885 495.039 29.0286 495.039 28.3828V27.4297C495.039 26.6849 495.125 26.0547 495.297 25.5391C495.474 25.0234 495.711 24.6094 496.008 24.2969C496.305 23.9792 496.641 23.75 497.016 23.6094C497.391 23.4635 497.776 23.3906 498.172 23.3906C498.703 23.3906 499.156 23.4766 499.531 23.6484C499.906 23.8203 500.211 24.0755 500.445 24.4141C500.68 24.7526 500.852 25.1693 500.961 25.6641C501.076 26.1589 501.133 26.7292 501.133 27.375V28.1797H495.852V27H499.75V26.8047C499.729 26.3672 499.669 25.9818 499.57 25.6484C499.477 25.3151 499.32 25.0547 499.102 24.8672C498.883 24.6745 498.573 24.5781 498.172 24.5781C497.917 24.5781 497.68 24.6224 497.461 24.7109C497.247 24.7943 497.062 24.9427 496.906 25.1562C496.755 25.3646 496.635 25.6536 496.547 26.0234C496.464 26.3932 496.422 26.862 496.422 27.4297V28.3828C496.422 28.8359 496.464 29.2266 496.547 29.5547C496.635 29.8776 496.763 30.1458 496.93 30.3594C497.102 30.5677 497.31 30.724 497.555 30.8281C497.805 30.9271 498.089 30.9766 498.406 30.9766C498.87 30.9766 499.253 30.888 499.555 30.7109C499.857 30.5286 500.12 30.2969 500.344 30.0156L501.07 30.8828C500.919 31.0964 500.721 31.3021 500.477 31.5C500.237 31.6927 499.94 31.8516 499.586 31.9766C499.237 32.0964 498.818 32.1562 498.328 32.1562ZM504.188 24.875V32H502.805V23.5469H504.141L504.188 24.875ZM506.289 23.5L506.297 24.8438C506.182 24.8177 506.078 24.8021 505.984 24.7969C505.896 24.7865 505.792 24.7812 505.672 24.7812C505.411 24.7812 505.182 24.8333 504.984 24.9375C504.792 25.0417 504.625 25.1875 504.484 25.375C504.344 25.5625 504.232 25.7865 504.148 26.0469C504.065 26.3021 504.008 26.5833 503.977 26.8906L503.617 27.125C503.617 26.6146 503.656 26.1354 503.734 25.6875C503.818 25.2396 503.945 24.8438 504.117 24.5C504.289 24.151 504.508 23.8802 504.773 23.6875C505.044 23.4896 505.367 23.3906 505.742 23.3906C505.826 23.3906 505.927 23.4036 506.047 23.4297C506.172 23.4505 506.253 23.474 506.289 23.5ZM511.508 30.5547V25.9688C511.508 25.6354 511.456 25.3672 511.352 25.1641C511.253 24.9609 511.102 24.8125 510.898 24.7188C510.701 24.625 510.451 24.5781 510.148 24.5781C509.857 24.5781 509.604 24.638 509.391 24.7578C509.182 24.8776 509.021 25.0365 508.906 25.2344C508.797 25.4323 508.742 25.651 508.742 25.8906H507.359C507.359 25.5885 507.424 25.2891 507.555 24.9922C507.69 24.6953 507.883 24.4271 508.133 24.1875C508.383 23.9427 508.682 23.75 509.031 23.6094C509.385 23.4635 509.781 23.3906 510.219 23.3906C510.74 23.3906 511.201 23.4766 511.602 23.6484C512.003 23.8151 512.318 24.0885 512.547 24.4688C512.776 24.849 512.891 25.3542 512.891 25.9844V30.1562C512.891 30.4375 512.911 30.737 512.953 31.0547C513 31.3724 513.065 31.6458 513.148 31.875V32H511.719C511.651 31.8333 511.599 31.612 511.562 31.3359C511.526 31.0547 511.508 30.7943 511.508 30.5547ZM511.727 26.875L511.742 27.8906H510.781C510.453 27.8906 510.154 27.9271 509.883 28C509.617 28.0729 509.388 28.1797 509.195 28.3203C509.003 28.4557 508.854 28.625 508.75 28.8281C508.651 29.0312 508.602 29.263 508.602 29.5234C508.602 29.862 508.648 30.1328 508.742 30.3359C508.836 30.5339 508.977 30.6771 509.164 30.7656C509.352 30.8542 509.589 30.8984 509.875 30.8984C510.224 30.8984 510.531 30.8177 510.797 30.6562C511.062 30.4948 511.268 30.2995 511.414 30.0703C511.565 29.8411 511.635 29.6276 511.625 29.4297L511.93 30.0781C511.909 30.2812 511.841 30.5026 511.727 30.7422C511.617 30.9766 511.464 31.2031 511.266 31.4219C511.068 31.6354 510.833 31.8125 510.562 31.9531C510.297 32.0885 509.997 32.1562 509.664 32.1562C509.174 32.1562 508.745 32.0625 508.375 31.875C508.01 31.6875 507.727 31.4115 507.523 31.0469C507.32 30.6823 507.219 30.2318 507.219 29.6953C507.219 29.2891 507.289 28.9141 507.43 28.5703C507.57 28.2266 507.779 27.9297 508.055 27.6797C508.331 27.4245 508.677 27.2266 509.094 27.0859C509.516 26.9453 510.003 26.875 510.555 26.875H511.727Z" fill="black"/>
<rect x="216" y="269" width="1" height="50" transform="rotate(-90 216 269)" fill="#D1D5DB"/>
<rect x="403" y="352" width="1" height="50" transform="rotate(-90 403 352)" fill="#D1D5DB"/>
<path d="M387 78C401.216 63.6622 438.518 43.5892 474 78" stroke="black" stroke-width="2"/>
<path d="M358.5 63.5L431 101L503 63.5" stroke="black" stroke-width="2" stroke-linecap="round" stroke-linejoin="round"/>
</svg>
