<svg width="42" height="42" viewBox="0 0 42 42" fill="none" xmlns="http://www.w3.org/2000/svg">
<g clip-path="url(#clip0_1_3)">
<path d="M12.6 15.4L13.72 16.24C13.876 16.032 13.971 15.7847 13.9943 15.5257C14.0177 15.2668 13.9685 15.0065 13.8522 14.7739C13.7359 14.5414 13.5572 14.3458 13.336 14.2091C13.1149 14.0724 12.86 14 12.6 14V15.4ZM8.4 21L7.28 20.16C7.124 20.368 7.02901 20.6153 7.00566 20.8743C6.98231 21.1332 7.03153 21.3936 7.1478 21.6261C7.26408 21.8587 7.44281 22.0542 7.66398 22.1909C7.88514 22.3276 8.14 22.4 8.4 22.4V21ZM5.6 16.8H12.6V14H5.6V16.8ZM11.48 14.56L7.28 20.16L9.52 21.84L13.72 16.24L11.48 14.56ZM8.4 22.4H9.8V19.6H8.4V22.4ZM9.8 25.2H5.6V28H9.8V25.2ZM11.2 23.8C11.2 24.1713 11.0525 24.5274 10.7899 24.79C10.5274 25.0525 10.1713 25.2 9.8 25.2V28C10.9139 28 11.9822 27.5575 12.7698 26.7699C13.5575 25.9822 14 24.9139 14 23.8H11.2ZM9.8 22.4C10.1713 22.4 10.5274 22.5475 10.7899 22.8101C11.0525 23.0726 11.2 23.4287 11.2 23.8H14C14 22.6861 13.5575 21.6178 12.7698 20.8302C11.9822 20.0425 10.9139 19.6 9.8 19.6V22.4ZM22.4 14H21V16.8H22.4V14ZM16.8 18.2V21H19.6V18.2H16.8ZM16.8 21V23.8H19.6V21H16.8ZM21 19.6H18.2V22.4H21V19.6ZM25.2 23.8C25.2 22.6861 24.7575 21.6178 23.9698 20.8302C23.1822 20.0425 22.1139 19.6 21 19.6V22.4C21.3713 22.4 21.7274 22.5475 21.9899 22.8101C22.2525 23.0726 22.4 23.4287 22.4 23.8H25.2ZM21 28C22.1139 28 23.1822 27.5575 23.9698 26.7699C24.7575 25.9822 25.2 24.9139 25.2 23.8H22.4C22.4 24.1713 22.2525 24.5274 21.9899 24.79C21.7274 25.0525 21.3713 25.2 21 25.2V28ZM21 25.2C20.6287 25.2 20.2726 25.0525 20.01 24.79C19.7475 24.5274 19.6 24.1713 19.6 23.8H16.8C16.8 24.9139 17.2425 25.9822 18.0302 26.7699C18.8178 27.5575 19.8861 28 21 28V25.2ZM21 14C19.8861 14 18.8178 14.4425 18.0302 15.2302C17.2425 16.0178 16.8 17.0861 16.8 18.2H19.6C19.6 17.8287 19.7475 17.4726 20.01 17.2101C20.2726 16.9475 20.6287 16.8 21 16.8V14ZM33.6 18.2V23.8H36.4V18.2H33.6ZM30.8 23.8V18.2H28V23.8H30.8ZM32.2 25.2C31.8287 25.2 31.4726 25.0525 31.21 24.79C30.9475 24.5274 30.8 24.1713 30.8 23.8H28C28 24.9139 28.4425 25.9822 29.2302 26.7699C30.0178 27.5575 31.0861 28 32.2 28V25.2ZM33.6 23.8C33.6 24.1713 33.4525 24.5274 33.1899 24.79C32.9274 25.0525 32.5713 25.2 32.2 25.2V28C33.3139 28 34.3822 27.5575 35.1698 26.7699C35.9575 25.9822 36.4 24.9139 36.4 23.8H33.6ZM32.2 16.8C32.5713 16.8 32.9274 16.9475 33.1899 17.2101C33.4525 17.4726 33.6 17.8287 33.6 18.2H36.4C36.4 17.0861 35.9575 16.0178 35.1698 15.2302C34.3822 14.4425 33.3139 14 32.2 14V16.8ZM32.2 14C31.0861 14 30.0178 14.4425 29.2302 15.2302C28.4425 16.0178 28 17.0861 28 18.2H30.8C30.8 17.8287 30.9475 17.4726 31.21 17.2101C31.4726 16.9475 31.8287 16.8 32.2 16.8V14ZM21 39.2C16.1731 39.2 11.5438 37.2825 8.13066 33.8694C4.71749 30.4562 2.8 25.827 2.8 21H0C0 26.5696 2.21249 31.911 6.15076 35.8493C10.089 39.7875 15.4305 42 21 42V39.2ZM39.2 21C39.2 23.3901 38.7292 25.7567 37.8146 27.9648C36.9 30.173 35.5594 32.1793 33.8693 33.8694C32.1793 35.5594 30.173 36.9 27.9648 37.8146C25.7567 38.7293 23.3901 39.2 21 39.2V42C26.5695 42 31.911 39.7875 35.8492 35.8493C39.7875 31.911 42 26.5696 42 21H39.2ZM21 1.16028e-05C15.4305 1.16028e-05 10.089 2.2125 6.15076 6.15077C2.21249 10.089 0 15.4305 0 21H2.8C2.8 16.1731 4.71749 11.5438 8.13066 8.13067C11.5438 4.71751 16.1731 2.80001 21 2.80001V1.16028e-05ZM37.8 8.40001C38.1713 8.40001 38.5274 8.54751 38.79 8.81006C39.0525 9.07261 39.2 9.42871 39.2 9.80001H42C42 8.6861 41.5575 7.61782 40.7698 6.83016C39.9822 6.04251 38.9139 5.60001 37.8 5.60001V8.40001ZM37.8 11.2C37.4287 11.2 37.0726 11.0525 36.81 10.79C36.5475 10.5274 36.4 10.1713 36.4 9.80001H33.6C33.6 10.9139 34.0425 11.9822 34.8302 12.7699C35.6178 13.5575 36.6861 14 37.8 14V11.2ZM36.4 9.80001C36.4 9.45561 36.5232 9.14201 36.7304 8.89561L34.594 7.08681C33.9752 7.81761 33.6 8.76681 33.6 9.80001H36.4ZM36.7304 8.89561C36.8617 8.7399 37.0255 8.61484 37.2103 8.52922C37.395 8.4436 37.5963 8.3995 37.8 8.40001V5.60001C36.512 5.60001 35.3612 6.17961 34.594 7.08681L36.7304 8.89561ZM21 2.80001C26.4152 2.80001 31.2788 5.16321 34.6136 8.92081L36.708 7.06161C34.7396 4.83878 32.3212 3.05969 29.6131 1.84227C26.905 0.624846 23.9691 -0.00311291 21 1.16028e-05V2.80001ZM37.3912 13.076C38.5504 15.4728 39.2 18.158 39.2 21H42C42 17.724 41.2496 14.6244 39.9112 11.858L37.3912 13.076ZM39.2 9.80001C39.2004 10.0972 39.1062 10.3869 38.931 10.627C38.7558 10.8671 38.5088 11.0453 38.2256 11.1356L39.0768 13.8012C39.9254 13.5304 40.6659 12.9969 41.1913 12.2776C41.7168 11.5584 42 10.6907 42 9.80001H39.2ZM38.2256 11.1356C38.0879 11.1789 37.9443 11.2006 37.8 11.2V14C38.2332 14.0009 38.6639 13.932 39.0768 13.8012L38.2256 11.1356Z" fill="#6B7280"/>
</g>
<defs>
<clipPath id="clip0_1_3">
<rect width="42" height="42" fill="white"/>
</clipPath>
</defs>
</svg>
