<svg width="300" height="300" viewBox="0 0 300 300" fill="none" xmlns="http://www.w3.org/2000/svg">
<rect width="300" height="300" fill="#DBDBDB"/>
<path d="M141.204 155.313C141.131 154.996 141.087 154.663 141.058 154.309C141.028 153.946 141.014 153.539 141.007 153.083L143.35 151.635L143.429 151.586C143.758 151.381 144.09 151.175 144.463 151.079C144.79 150.995 145.129 150.978 145.462 151.029C145.843 151.087 146.194 151.258 146.543 151.429L146.626 151.469L147.154 151.726C147.684 151.984 147.747 152.001 147.789 152.007C147.86 152.016 147.933 152.01 148.001 151.989C148.042 151.976 148.101 151.949 148.58 151.607L151.086 149.818L151.179 149.751C151.563 149.475 151.949 149.199 152.394 149.08C152.781 148.977 153.188 148.968 153.58 149.055C154.029 149.155 154.426 149.415 154.822 149.674L154.918 149.736L158.999 152.396C158.997 153.141 158.986 153.773 158.942 154.309C158.931 154.448 158.917 154.585 158.9 154.718L153.826 151.412C153.263 151.045 153.193 151.018 153.147 151.007C153.068 150.99 152.987 150.992 152.91 151.012C152.864 151.025 152.795 151.055 152.248 151.445L149.743 153.234L149.661 153.293C149.323 153.536 148.982 153.78 148.589 153.901C148.245 154.006 147.884 154.036 147.528 153.989C147.12 153.936 146.743 153.752 146.369 153.568L146.279 153.525L145.751 153.267C145.259 153.028 145.201 153.012 145.161 153.006C145.095 152.996 145.027 152.999 144.962 153.016C144.923 153.026 144.867 153.048 144.402 153.336L141.204 155.313Z" fill="white"/>
<path d="M149 147C149 148.105 148.105 149 147 149C145.896 149 145 148.105 145 147C145 145.895 145.896 145 147 145C148.105 145 149 145.895 149 147Z" fill="white"/>
<path fill-rule="evenodd" clip-rule="evenodd" d="M148.357 141H151.643C152.727 141 153.601 141 154.309 141.058C155.037 141.117 155.678 141.243 156.27 141.545C157.211 142.024 157.976 142.789 158.455 143.73C158.757 144.322 158.883 144.963 158.942 145.691C159 146.399 159 147.273 159 148.357V151.643C159 152.727 159 153.601 158.942 154.309C158.883 155.037 158.757 155.678 158.455 156.27C157.976 157.211 157.211 157.976 156.27 158.455C155.678 158.757 155.037 158.883 154.309 158.942C153.601 159 152.727 159 151.643 159H148.357C147.273 159 146.399 159 145.691 158.942C144.963 158.883 144.322 158.757 143.73 158.455C142.789 157.976 142.024 157.211 141.545 156.27C141.243 155.678 141.117 155.037 141.058 154.309C141 153.601 141 152.727 141 151.643V148.357C141 147.273 141 146.399 141.058 145.691C141.117 144.963 141.243 144.322 141.545 143.73C142.024 142.789 142.789 142.024 143.73 141.545C144.322 141.243 144.963 141.117 145.691 141.058C146.399 141 147.273 141 148.357 141ZM145.854 143.051C145.249 143.101 144.901 143.193 144.638 143.327C144.074 143.615 143.615 144.074 143.327 144.638C143.193 144.901 143.101 145.249 143.051 145.854C143.001 146.471 143 147.263 143 148.4V151.6C143 152.737 143.001 153.529 143.051 154.146C143.101 154.751 143.193 155.099 143.327 155.362C143.615 155.926 144.074 156.385 144.638 156.673C144.901 156.807 145.249 156.899 145.854 156.949C146.471 156.999 147.263 157 148.4 157H151.6C152.737 157 153.529 156.999 154.146 156.949C154.751 156.899 155.099 156.807 155.362 156.673C155.926 156.385 156.385 155.926 156.673 155.362C156.807 155.099 156.899 154.751 156.949 154.146C156.999 153.529 157 152.737 157 151.6V148.4C157 147.263 156.999 146.471 156.949 145.854C156.899 145.249 156.807 144.901 156.673 144.638C156.385 144.074 155.926 143.615 155.362 143.327C155.099 143.193 154.751 143.101 154.146 143.051C153.529 143.001 152.737 143 151.6 143H148.4C147.263 143 146.471 143.001 145.854 143.051Z" fill="white"/>
</svg>
